<svg width="160" height="68" viewBox="0 0 160 68" fill="none" xmlns="http://www.w3.org/2000/svg">
<g clip-path="url(#clip0_337_8652)">
<path d="M72.0571 0.0785453C97.0608 0.0785453 121.973 0.173042 146.883 0.0212855C154.413 -0.0245802 158.564 5.38985 159.611 10.349C159.86 11.5288 159.989 12.7553 159.991 13.9606C160.017 27.3295 160.01 40.6985 160.006 54.0675C160.005 57.9148 158.858 61.3592 156.203 64.2333C153.928 66.6951 151.094 67.9474 147.697 67.9427C141.539 67.9343 135.38 67.9404 129.222 67.9404C90.5154 67.9404 51.8087 67.873 13.1027 67.9967C5.27971 68.0217 1.01266 62.1366 0.194375 56.7712C0.0666551 55.9338 -0.00195238 55.0792 -0.00270508 54.2325C-0.0147006 40.742 -0.0113797 27.2515 -0.0110555 13.761C-0.0109766 10.5423 0.860202 7.58036 2.7908 4.97413C5.17657 1.75344 8.35987 0.0638408 12.4733 0.068492C32.3038 0.0909129 52.1343 0.0785564 72.0571 0.0785453ZM55.1801 16.7514C54.3464 15.9045 53.5895 14.964 52.6661 14.2264C48.0049 10.503 42.4223 9.22606 36.6464 8.64053C32.9214 8.26293 29.2265 8.7913 25.6018 9.67544C21.3582 10.7105 17.4588 12.422 14.319 15.5415C12.7806 17.07 11.772 18.9151 11.3616 20.9976C10.9689 22.9905 11.6956 24.8319 12.7251 26.5257C14.1771 28.9145 16.3019 30.6278 18.7761 31.8608C27.7933 36.3542 37.0817 36.5755 46.5159 33.3149C49.5688 32.2597 52.3019 30.6244 54.489 28.2128C56.1554 26.3753 57.2561 24.2236 57.202 21.7567C57.163 19.9777 56.3556 18.3186 55.1801 16.7514ZM73.4854 43.8942C72.2541 41.7977 71.032 39.6959 69.7792 37.612C69.6313 37.366 69.3261 37.0692 69.0754 37.0516C68.1346 36.9853 67.186 37.025 66.2149 37.025C66.2149 42.7148 66.2149 48.3141 66.2149 53.8929C67.3256 53.8929 68.3819 53.8929 69.3694 53.8929C69.3694 50.2076 69.3694 46.5931 69.3694 42.8235C70.7564 45.2313 72.1068 47.4964 73.3663 49.8097C73.7532 50.5204 74.295 50.4178 74.8939 50.4605C75.4788 50.5022 75.8293 50.3382 76.1291 49.7977C77.4044 47.4982 78.7358 45.2289 80.107 42.8437C80.107 46.6222 80.107 50.2624 80.107 53.8982C81.1717 53.8982 82.2279 53.8982 83.2626 53.8982C83.2626 48.2556 83.2626 42.6784 83.2626 37.0249C82.516 37.0249 81.8086 37.0832 81.1155 37.0097C80.3002 36.9233 79.8695 37.2229 79.4703 37.9352C77.9566 40.6364 76.3598 43.2923 74.7454 46.0482C74.3117 45.3139 73.928 44.6642 73.4854 43.8942ZM77.3054 21.8271C77.6002 19.2625 76.6936 17.5344 74.4085 16.376C73.8662 16.1011 73.2813 15.9076 72.7148 15.6797C71.8088 15.3153 70.8802 14.9973 70.002 14.5766C69.3069 14.2436 68.784 13.6885 68.9308 12.8426C69.0813 11.9761 69.7551 11.6228 70.5563 11.451C72.1398 11.1114 73.2383 11.7285 73.9158 13.2032C74.9144 12.7846 75.8553 12.3902 76.7905 11.9981C75.6898 8.97397 72.9859 7.95905 69.8449 8.48024C67.6326 8.84734 66.0585 10.415 65.7708 12.286C65.4351 14.4701 66.3623 16.2127 68.5515 17.3249C69.4197 17.766 70.3867 18.0144 71.2728 18.426C72.0415 18.7831 72.8492 19.1453 73.4789 19.6872C74.4299 20.5054 74.2012 21.9023 73.1328 22.5471C71.8599 23.3152 70.0516 23.0504 69.1256 21.8866C68.6993 21.3507 68.4143 20.7053 68.025 20.0409C67.0537 20.4243 66.0469 20.8216 65.0475 21.216C66.113 24.5668 68.6975 26.3053 72.1252 26.0496C74.7604 25.8529 76.7667 24.2659 77.3054 21.8271ZM50.4296 46.2324C46.2399 48.2986 41.7797 49.4035 37.1266 49.6538C27.8827 50.1512 19.2753 48.4899 12.1328 42.1307C12.0964 42.1684 12.0244 42.209 12.0246 42.2492C12.0252 42.3666 12.021 42.5034 12.0778 42.5981C13.3109 44.6562 14.8656 46.4126 16.8764 47.7857C21.5059 50.9471 26.8066 52.0716 32.251 52.5954C34.3246 52.7949 36.4649 52.4941 38.5588 52.2739C42.414 51.8683 46.1077 50.8551 49.5338 49.0186C52.2262 47.5754 54.5631 45.7405 56.0559 43.022C56.2189 42.7251 56.3408 42.4061 56.39 42.2983C54.5075 43.5455 52.5287 44.8563 50.4296 46.2324ZM46.7602 42.0721C39.7549 44.3945 32.6392 44.6738 25.4455 43.1183C21.091 42.1767 17.0588 40.5068 13.6002 37.6551C13.0902 37.2346 12.6164 36.7712 12.0968 36.3014C12.069 36.4309 12.0321 36.4965 12.0489 36.5436C12.1097 36.714 12.18 36.8823 12.2618 37.044C13.6982 39.8817 16.0159 41.8737 18.8204 43.2429C28.5436 47.9902 38.4282 48.0615 48.3569 43.8947C51.1084 42.74 53.4998 41.0165 55.2651 38.5741C55.7451 37.91 56.1053 37.1615 56.5205 36.4518C56.4549 36.4031 56.3892 36.3544 56.3236 36.3056C53.6685 39.0046 50.4432 40.7749 46.7602 42.0721ZM26.3128 37.6175C20.939 36.5166 16.0242 34.4948 12.021 30.6185C12.0653 30.9062 12.1482 31.1303 12.2549 31.3427C13.5157 33.853 15.5362 35.6393 17.9216 37.0571C22.5505 39.8084 27.642 40.9553 32.9802 41.1143C39.1841 41.2991 45.119 40.2402 50.532 37.0613C52.7031 35.7863 54.5687 34.1781 55.8489 31.9884C56.0169 31.7011 56.0988 31.3648 56.2207 31.0512C55.9454 31.0442 55.8147 31.1139 55.711 31.2115C53.3802 33.4072 50.6426 34.9552 47.6454 36.058C40.745 38.5968 33.6667 38.9577 26.3128 37.6175ZM133.46 23.9686C133.46 22.7244 133.375 21.4725 133.489 20.2387C133.571 19.363 133.793 18.4476 134.188 17.6662C134.654 16.7448 135.773 16.4248 136.733 16.6919C137.692 16.9588 138.158 17.5772 138.227 18.729C138.259 19.2734 138.25 19.8206 138.25 20.3665C138.253 22.1172 138.251 23.8679 138.251 25.6362C139.386 25.6362 140.413 25.6362 141.451 25.6362C141.451 22.9818 141.6 20.3687 141.412 17.7793C141.198 14.8158 139.361 13.4269 136.457 13.696C135.22 13.8105 134.262 14.4563 133.406 15.4138C133.406 13.1253 133.406 10.9653 133.406 8.80926C132.332 8.80926 131.306 8.80926 130.32 8.80926C130.32 14.4651 130.32 20.0616 130.32 25.6396C131.389 25.6396 132.392 25.6396 133.46 25.6396C133.46 25.111 133.46 24.6303 133.46 23.9686ZM89.5897 15.384C89.4663 15.5191 89.3339 15.6473 89.2209 15.7903C87.6072 17.8339 87.2882 20.0863 88.2834 22.4574C89.215 24.6771 91.0157 25.8368 93.4112 26.0421C96.1094 26.2734 98.1847 25.2363 99.6184 22.8591C98.7185 22.4127 97.8507 21.9823 96.9413 21.5312C96.0392 23.04 94.6939 23.5169 93.0672 23.0973C91.834 22.7792 91.1399 21.9065 90.9427 20.5601C93.9058 20.5601 96.8144 20.5601 99.7144 20.5601C99.9678 17.561 98.8805 15.3038 96.7242 14.2614C94.4321 13.1533 91.6807 13.5624 89.5897 15.384ZM121.869 53.8336C123.107 53.2655 124.035 52.3776 124.734 51.1506C123.832 50.7071 122.966 50.2818 122.111 49.862C120.759 51.6185 119.588 51.7964 117.99 51.3274C116.854 50.994 116.184 50.0256 116.194 48.8651C119.071 48.8651 121.95 48.8651 124.819 48.8651C125.148 46.0544 124.124 43.7199 122.018 42.6744C119.711 41.5292 117.412 41.6452 115.331 43.1884C113.205 44.7651 112.513 46.987 113.012 49.4971C113.789 53.4109 117.655 55.3196 121.869 53.8336ZM105.513 13.7231C103.886 13.9832 102.502 14.6582 101.434 16.0394C102.222 16.5763 102.973 17.0876 103.744 17.6134C104.953 16.3719 106.324 15.791 107.969 16.6398C108.707 17.021 109.178 17.6371 109.018 18.3056C107.529 18.2777 106.117 18.1001 104.745 18.2591C102.387 18.5323 101.037 20.2332 101.187 22.4401C101.323 24.4583 103.075 25.955 105.325 26.0709C106.804 26.147 107.967 25.578 108.996 24.4201C109.02 24.9366 109.035 25.2674 109.052 25.6368C110.099 25.6368 111.128 25.6368 112.153 25.6368C112.153 23.0111 112.235 20.4337 112.128 17.864C112.039 15.733 110.715 14.3007 108.606 13.8987C107.653 13.7169 106.655 13.763 105.513 13.7231ZM94.8044 53.7346C97.2009 52.4636 98.1937 50.4489 98.1179 47.8111C98.0409 45.1315 96.2148 42.7971 93.6113 42.1647C90.6401 41.4429 87.6994 42.6147 86.3962 45.0396C85.0802 47.4882 85.4329 50.5438 87.2575 52.5021C88.9947 54.3667 92.0348 54.8911 94.8044 53.7346ZM126.568 45.1277C127.68 47.6165 128.77 50.1151 129.92 52.5867C130.189 53.1663 130.189 53.6136 129.908 54.1843C129.128 55.7695 128.421 57.3896 127.661 59.0489C128.892 59.0489 129.997 59.0489 131.139 59.0489C133.576 53.5159 136.012 47.9866 138.484 42.3763C137.205 42.3763 136.077 42.3763 134.894 42.3763C133.961 44.6586 133.021 46.9557 132.019 49.406C131.857 49.0584 131.776 48.8988 131.707 48.7346C130.891 46.8104 130.09 44.8802 129.249 42.9672C129.138 42.7151 128.834 42.3875 128.601 42.373C127.569 42.3083 126.53 42.3449 125.333 42.3449C125.761 43.3066 126.138 44.1527 126.568 45.1277ZM103.047 48.9598C103.172 48.1281 103.173 47.2529 103.452 46.4748C103.884 45.2676 104.959 44.7555 106.164 44.9752C107.272 45.1772 107.784 45.8299 107.825 47.2382C107.864 48.6044 107.834 49.9725 107.834 51.3398C107.835 52.2043 107.834 53.0687 107.834 53.9233C108.969 53.9233 109.974 53.9233 111.012 53.9233C111.012 51.247 111.1 48.6074 110.984 45.9765C110.89 43.8532 109.646 42.5055 107.729 42.0885C105.818 41.673 104.229 42.2146 102.92 43.8237C102.875 43.2587 102.84 42.8298 102.805 42.3941C101.791 42.3941 100.851 42.3941 99.8665 42.3941C99.8665 46.256 99.8665 50.0679 99.8665 53.9123C100.929 53.9123 101.955 53.9123 103.047 53.9123C103.047 52.2873 103.047 50.7131 103.047 48.9598ZM125.066 11.2686C125.053 11.0368 125.039 10.8049 125.025 10.5607C123.934 10.5607 122.9 10.5607 121.777 10.5607C121.777 11.7461 121.777 12.8813 121.777 14.073C121.082 14.073 120.478 14.073 119.825 14.073C119.825 14.9937 119.825 15.8546 119.825 16.7959C120.507 16.7959 121.14 16.7959 121.807 16.7959C121.807 18.5731 121.767 20.2712 121.815 21.9669C121.914 25.4723 125.318 27.2779 128.38 25.4525C128.252 25.0272 128.13 24.5935 127.989 24.166C127.839 23.7139 127.672 23.2678 127.513 22.8229C125.958 23.2624 125.152 22.9496 125.099 21.7958C125.022 20.1415 125.079 18.4813 125.079 16.7434C126.067 16.7434 126.972 16.7434 127.847 16.7434C127.847 15.8013 127.847 14.9426 127.847 14.0272C126.893 14.0272 126.011 14.0272 125.066 14.0272C125.066 13.1264 125.066 12.2829 125.066 11.2686ZM78.8392 14.0535C78.6167 14.1764 78.2131 14.2848 78.2017 14.4244C78.1388 15.1947 78.1717 15.9727 78.1717 16.8108C78.9311 16.8108 79.5662 16.8108 80.2357 16.8108C80.2357 18.5729 80.2275 20.2696 80.2382 21.9662C80.2477 23.4777 80.6979 24.8105 82.1218 25.5693C83.663 26.3906 85.2324 26.1747 86.8301 25.5323C86.5104 24.5669 86.2199 23.6894 85.9305 22.8151C84.4323 23.2425 83.5977 22.98 83.5403 21.9588C83.4443 20.2501 83.5141 18.5323 83.5141 16.7475C84.4827 16.7475 85.3906 16.7475 86.2847 16.7475C86.2847 15.8118 86.2847 14.9502 86.2847 14.0142C85.3106 14.0142 84.4006 14.0142 83.438 14.0142C83.438 12.8253 83.438 11.7117 83.438 10.5618C82.3518 10.5618 81.3214 10.5618 80.2018 10.5618C80.2018 11.7486 80.2018 12.884 80.2018 14.0535C79.7464 14.0535 79.3804 14.0535 78.8392 14.0535ZM117.861 16.1342C117.861 13.6892 117.861 11.2442 117.861 8.79848C116.727 8.79848 115.697 8.79848 114.657 8.79848C114.657 14.4418 114.657 20.0351 114.657 25.6352C115.744 25.6352 116.772 25.6352 117.861 25.6352C117.861 22.4928 117.861 19.4046 117.861 16.1342Z" fill="#020202"/>
<path d="M55.2171 16.8034C56.3522 18.3185 57.1595 19.9775 57.1986 21.7566C57.2527 24.2235 56.1519 26.3752 54.4855 28.2126C52.2984 30.6243 49.5654 32.2596 46.5125 33.3147C37.0783 36.5754 27.7899 36.3541 18.7727 31.8607C16.2984 30.6277 14.1737 28.9143 12.7217 26.5255C11.6922 24.8318 10.9655 22.9904 11.3582 20.9975C11.7686 18.9149 12.7771 17.0699 14.3156 15.5414C17.4554 12.4219 21.3548 10.7104 25.5984 9.67531C29.2231 8.79117 32.918 8.2628 36.6429 8.6404C42.4189 9.22593 48.0015 10.5029 52.6627 14.2263C53.586 14.9639 54.343 15.9043 55.2171 16.8034Z" fill="#F18B38"/>
<path d="M55.2171 16.8034C56.3522 18.3185 57.1595 19.9775 57.1986 21.7566C57.2527 24.2235 56.1519 26.3752 54.4855 28.2126C52.2984 30.6243 49.5654 32.2596 46.5125 33.3147C37.0783 36.5754 27.7899 36.3541 18.7727 31.8607C16.2984 30.6277 14.1737 28.9143 12.7217 26.5255C11.6922 24.8318 10.9655 22.9904 11.3582 20.9975C11.7686 18.9149 12.7771 17.0699 14.3156 15.5414C17.4554 12.4219 21.3548 10.7104 25.5984 9.67531C29.2231 8.79117 32.918 8.2628 36.6429 8.6404C42.4189 9.22593 48.0015 10.5029 52.6627 14.2263C53.586 14.9639 54.343 15.9043 55.2171 16.8034Z" fill="#F18B38"/>
<path d="M73.5148 43.9542C73.928 44.6641 74.3117 45.3138 74.7454 46.0481C76.3598 43.2921 77.9566 40.6362 79.4703 37.9351C79.8694 37.2228 80.3001 36.9232 81.1155 37.0096C81.8086 37.0831 82.516 37.0247 83.2626 37.0247C83.2626 42.6783 83.2626 48.2554 83.2626 53.8981C82.2278 53.8981 81.1717 53.8981 80.1069 53.8981C80.1069 50.2623 80.1069 46.6221 80.1069 42.8435C78.7357 45.2287 77.4044 47.498 76.129 49.7976C75.8293 50.338 75.4788 50.502 74.8938 50.4603C74.295 50.4177 73.7532 50.5202 73.3662 49.8095C72.1068 47.4962 70.7563 45.2312 69.3693 42.8233C69.3693 46.5929 69.3693 50.2075 69.3693 53.8928C68.3818 53.8928 67.3255 53.8928 66.2148 53.8928C66.2148 48.3139 66.2148 42.7147 66.2148 37.0249C67.186 37.0249 68.1345 36.9852 69.0754 37.0514C69.3261 37.0691 69.6313 37.3658 69.7792 37.6118C71.0319 39.6958 72.254 41.7976 73.5148 43.9542Z" fill="#FBFBFB"/>
<path d="M73.5148 43.9542C73.928 44.6641 74.3117 45.3138 74.7454 46.0481C76.3598 43.2921 77.9566 40.6362 79.4703 37.9351C79.8694 37.2228 80.3001 36.9232 81.1155 37.0096C81.8086 37.0831 82.516 37.0247 83.2626 37.0247C83.2626 42.6783 83.2626 48.2554 83.2626 53.8981C82.2278 53.8981 81.1717 53.8981 80.1069 53.8981C80.1069 50.2623 80.1069 46.6221 80.1069 42.8435C78.7357 45.2287 77.4044 47.498 76.129 49.7976C75.8293 50.338 75.4788 50.502 74.8938 50.4603C74.295 50.4177 73.7532 50.5202 73.3662 49.8095C72.1068 47.4962 70.7563 45.2312 69.3693 42.8233C69.3693 46.5929 69.3693 50.2075 69.3693 53.8928C68.3818 53.8928 67.3255 53.8928 66.2148 53.8928C66.2148 48.3139 66.2148 42.7147 66.2148 37.0249C67.186 37.0249 68.1345 36.9852 69.0754 37.0514C69.3261 37.0691 69.6313 37.3658 69.7792 37.6118C71.0319 39.6958 72.254 41.7976 73.5148 43.9542Z" fill="#FBFBFB"/>
<path d="M77.2885 21.9023C76.7661 24.2659 74.7598 25.853 72.1245 26.0496C68.6969 26.3053 66.1124 24.5668 65.0469 21.216C66.0463 20.8216 67.0531 20.4243 68.0244 20.0409C68.4137 20.7053 68.6986 21.3507 69.125 21.8866C70.051 23.0504 71.8593 23.3152 73.1322 22.5471C74.2006 21.9024 74.4293 20.5054 73.4783 19.6872C72.8485 19.1453 72.0409 18.7831 71.2722 18.426C70.3861 18.0144 69.4191 17.766 68.5509 17.3249C66.3617 16.2127 65.4345 14.4701 65.7702 12.286C66.0579 10.415 67.632 8.84735 69.8443 8.48026C72.9853 7.95907 75.6892 8.97398 76.7899 11.9981C75.8547 12.3902 74.9138 12.7846 73.9152 13.2033C73.2377 11.7285 72.1392 11.1115 70.5557 11.451C69.7545 11.6228 69.0807 11.9761 68.9302 12.8427C68.7834 13.6885 69.3063 14.2437 70.0014 14.5766C70.8796 14.9973 71.8082 15.3153 72.7141 15.6797C73.2807 15.9076 73.8656 16.1011 74.4079 16.376C76.693 17.5344 77.5996 19.2625 77.2885 21.9023Z" fill="#FAFAFA"/>
<path d="M77.2885 21.9023C76.7661 24.2659 74.7598 25.853 72.1245 26.0496C68.6969 26.3053 66.1124 24.5668 65.0469 21.216C66.0463 20.8216 67.0531 20.4243 68.0244 20.0409C68.4137 20.7053 68.6986 21.3507 69.125 21.8866C70.051 23.0504 71.8593 23.3152 73.1322 22.5471C74.2006 21.9024 74.4293 20.5054 73.4783 19.6872C72.8485 19.1453 72.0409 18.7831 71.2722 18.426C70.3861 18.0144 69.4191 17.766 68.5509 17.3249C66.3617 16.2127 65.4345 14.4701 65.7702 12.286C66.0579 10.415 67.632 8.84735 69.8443 8.48026C72.9853 7.95907 75.6892 8.97398 76.7899 11.9981C75.8547 12.3902 74.9138 12.7846 73.9152 13.2033C73.2377 11.7285 72.1392 11.1115 70.5557 11.451C69.7545 11.6228 69.0807 11.9761 68.9302 12.8427C68.7834 13.6885 69.3063 14.2437 70.0014 14.5766C70.8796 14.9973 71.8082 15.3153 72.7141 15.6797C73.2807 15.9076 73.8656 16.1011 74.4079 16.376C76.693 17.5344 77.5996 19.2625 77.2885 21.9023Z" fill="#FAFAFA"/>
<path d="M50.4886 46.1998C52.5275 44.8563 54.5063 43.5454 56.3888 42.2983C56.3396 42.4061 56.2177 42.725 56.0547 43.0219C54.562 45.7404 52.225 47.5753 49.5326 49.0185C46.1066 50.855 42.4128 51.8683 38.5576 52.2738C36.4637 52.4941 34.3234 52.7948 32.2499 52.5953C26.8054 52.0715 21.5047 50.947 16.8752 47.7857C14.8644 46.4126 13.3097 44.6562 12.0766 42.5981C12.0198 42.5033 12.024 42.3665 12.0234 42.2492C12.0232 42.2089 12.0952 42.1684 12.1317 42.1306C19.2741 48.4898 27.8815 50.1511 37.1254 49.6538C41.7785 49.4034 46.2387 48.2986 50.4886 46.1998Z" fill="#F2F0F0"/>
<path d="M50.4886 46.1998C52.5275 44.8563 54.5063 43.5454 56.3888 42.2983C56.3396 42.4061 56.2177 42.725 56.0547 43.0219C54.562 45.7404 52.225 47.5753 49.5326 49.0185C46.1066 50.855 42.4128 51.8683 38.5576 52.2738C36.4637 52.4941 34.3234 52.7948 32.2499 52.5953C26.8054 52.0715 21.5047 50.947 16.8752 47.7857C14.8644 46.4126 13.3097 44.6562 12.0766 42.5981C12.0198 42.5033 12.024 42.3665 12.0234 42.2492C12.0232 42.2089 12.0952 42.1684 12.1317 42.1306C19.2741 48.4898 27.8815 50.1511 37.1254 49.6538C41.7785 49.4034 46.2387 48.2986 50.4886 46.1998Z" fill="#F2F0F0"/>
<path d="M46.8274 42.048C50.4415 40.7748 53.6667 39.0045 56.3218 36.3055C56.3875 36.3543 56.4531 36.403 56.5188 36.4517C56.1036 37.1614 55.7434 37.9099 55.2634 38.574C53.498 41.0164 51.1067 42.7399 48.3551 43.8946C38.4264 48.0614 28.5419 47.9901 18.8186 43.2428C16.0142 41.8736 13.6965 39.8816 12.26 37.0439C12.1782 36.8822 12.108 36.7138 12.0472 36.5435C12.0304 36.4964 12.0673 36.4308 12.0951 36.3013C12.6147 36.7711 13.0884 37.2345 13.5985 37.655C17.0571 40.5067 21.0892 42.1766 25.4438 43.1182C32.6375 44.6737 39.7531 44.3944 46.8274 42.048Z" fill="#F2F0F0"/>
<path d="M46.8274 42.048C50.4415 40.7748 53.6667 39.0045 56.3218 36.3055C56.3875 36.3543 56.4531 36.403 56.5188 36.4517C56.1036 37.1614 55.7434 37.9099 55.2634 38.574C53.498 41.0164 51.1067 42.7399 48.3551 43.8946C38.4264 48.0614 28.5419 47.9901 18.8186 43.2428C16.0142 41.8736 13.6965 39.8816 12.26 37.0439C12.1782 36.8822 12.108 36.7138 12.0472 36.5435C12.0304 36.4964 12.0673 36.4308 12.0951 36.3013C12.6147 36.7711 13.0884 37.2345 13.5985 37.655C17.0571 40.5067 21.0892 42.1766 25.4438 43.1182C32.6375 44.6737 39.7531 44.3944 46.8274 42.048Z" fill="#F2F0F0"/>
<path d="M26.3869 37.637C33.6652 38.9577 40.7435 38.5967 47.6439 36.0579C50.6411 34.9552 53.3787 33.4071 55.7095 31.2114C55.8132 31.1138 55.9439 31.0441 56.2192 31.0512C56.0974 31.3647 56.0154 31.701 55.8474 31.9883C54.5672 34.178 52.7016 35.7863 50.5305 37.0612C45.1175 40.2401 39.1826 41.299 32.9787 41.1143C27.6405 40.9553 22.549 39.8083 17.9201 37.057C15.5347 35.6392 13.5142 33.853 12.2534 31.3426C12.1467 31.1302 12.0638 30.9061 12.0195 30.6184C16.0227 34.4947 20.9375 36.5165 26.3869 37.637Z" fill="#F2F0F0"/>
<path d="M26.3869 37.637C33.6652 38.9577 40.7435 38.5967 47.6439 36.0579C50.6411 34.9552 53.3787 33.4071 55.7095 31.2114C55.8132 31.1138 55.9439 31.0441 56.2192 31.0512C56.0974 31.3647 56.0154 31.701 55.8474 31.9883C54.5672 34.178 52.7016 35.7863 50.5305 37.0612C45.1175 40.2401 39.1826 41.299 32.9787 41.1143C27.6405 40.9553 22.549 39.8083 17.9201 37.057C15.5347 35.6392 13.5142 33.853 12.2534 31.3426C12.1467 31.1302 12.0638 30.9061 12.0195 30.6184C16.0227 34.4947 20.9375 36.5165 26.3869 37.637Z" fill="#F2F0F0"/>
<path d="M133.457 24.0589C133.457 24.6301 133.457 25.1109 133.457 25.6395C132.389 25.6395 131.385 25.6395 130.316 25.6395C130.316 20.0614 130.316 14.4649 130.316 8.80908C131.302 8.80908 132.329 8.80908 133.402 8.80908C133.402 10.9652 133.402 13.1252 133.402 15.4136C134.259 14.4561 135.217 13.8104 136.453 13.6958C139.357 13.4267 141.194 14.8156 141.409 17.7791C141.596 20.3686 141.448 22.9817 141.448 25.6361C140.41 25.6361 139.382 25.6361 138.248 25.6361C138.248 23.8678 138.249 22.117 138.247 20.3663C138.246 19.8204 138.256 19.2732 138.223 18.7288C138.154 17.577 137.688 16.9586 136.729 16.6917C135.769 16.4246 134.65 16.7447 134.184 17.6661C133.789 18.4474 133.567 19.3628 133.486 20.2385C133.371 21.4723 133.457 22.7242 133.457 24.0589Z" fill="#FBFBFB"/>
<path d="M133.457 24.0589C133.457 24.6301 133.457 25.1109 133.457 25.6395C132.389 25.6395 131.385 25.6395 130.316 25.6395C130.316 20.0614 130.316 14.4649 130.316 8.80908C131.302 8.80908 132.329 8.80908 133.402 8.80908C133.402 10.9652 133.402 13.1252 133.402 15.4136C134.259 14.4561 135.217 13.8104 136.453 13.6958C139.357 13.4267 141.194 14.8156 141.409 17.7791C141.596 20.3686 141.448 22.9817 141.448 25.6361C140.41 25.6361 139.382 25.6361 138.248 25.6361C138.248 23.8678 138.249 22.117 138.247 20.3663C138.246 19.8204 138.256 19.2732 138.223 18.7288C138.154 17.577 137.688 16.9586 136.729 16.6917C135.769 16.4246 134.65 16.7447 134.184 17.6661C133.789 18.4474 133.567 19.3628 133.486 20.2385C133.371 21.4723 133.457 22.7242 133.457 24.0589Z" fill="#FBFBFB"/>
<path d="M89.6402 15.3452C91.6784 13.5624 94.4298 13.1533 96.7219 14.2614C98.8782 15.3038 99.9655 17.5609 99.7122 20.56C96.8122 20.56 93.9035 20.56 90.9405 20.56C91.1377 21.9064 91.8317 22.7791 93.065 23.0972C94.6917 23.5168 96.0369 23.0399 96.9391 21.5312C97.8485 21.9823 98.7163 22.4127 99.6161 22.859C98.1825 25.2363 96.1071 26.2734 93.409 26.0421C91.0135 25.8367 89.2128 24.6771 88.2811 22.4573C87.286 20.0863 87.6049 17.8338 89.2187 15.7903C89.3317 15.6472 89.464 15.5191 89.6402 15.3452ZM95.0977 16.5055C93.0878 15.9466 91.556 16.6703 91.2441 18.2967C93.0248 18.2967 94.8112 18.2967 96.6685 18.2967C96.417 17.4567 95.9794 16.8849 95.0977 16.5055Z" fill="#FBFBFB"/>
<path d="M89.6402 15.3452C91.6784 13.5624 94.4298 13.1533 96.7219 14.2614C98.8782 15.3038 99.9655 17.5609 99.7122 20.56C96.8122 20.56 93.9035 20.56 90.9405 20.56C91.1377 21.9064 91.8317 22.7791 93.065 23.0972C94.6917 23.5168 96.0369 23.0399 96.9391 21.5312C97.8485 21.9823 98.7163 22.4127 99.6161 22.859C98.1825 25.2363 96.1071 26.2734 93.409 26.0421C91.0135 25.8367 89.2128 24.6771 88.2811 22.4573C87.286 20.0863 87.6049 17.8338 89.2187 15.7903C89.3317 15.6472 89.464 15.5191 89.6402 15.3452ZM95.0977 16.5055C93.0878 15.9466 91.556 16.6703 91.2441 18.2967C93.0248 18.2967 94.8112 18.2967 96.6685 18.2967C96.417 17.4567 95.9794 16.8849 95.0977 16.5055Z" fill="#FBFBFB"/>
<path d="M121.805 53.8688C117.653 55.3195 113.787 53.4107 113.01 49.4969C112.511 46.9868 113.203 44.7649 115.329 43.1882C117.41 41.645 119.709 41.529 122.016 42.6742C124.122 43.7198 125.146 46.0542 124.817 48.8649C121.948 48.8649 119.069 48.8649 116.192 48.8649C116.182 50.0254 116.852 50.9939 117.988 51.3273C119.586 51.7962 120.757 51.6183 122.11 49.8619C122.964 50.2816 123.83 50.707 124.732 51.1504C124.033 52.3774 123.105 53.2653 121.805 53.8688ZM116.342 46.3726C116.398 46.4708 116.453 46.6544 116.51 46.6549C118.247 46.6701 119.983 46.6673 121.744 46.6673C121.408 45.4418 120.678 44.7773 119.588 44.6396C118.155 44.4585 117.06 44.9401 116.342 46.3726Z" fill="#FBFBFB"/>
<path d="M121.805 53.8688C117.653 55.3195 113.787 53.4107 113.01 49.4969C112.511 46.9868 113.203 44.7649 115.329 43.1882C117.41 41.645 119.709 41.529 122.016 42.6742C124.122 43.7198 125.146 46.0542 124.817 48.8649C121.948 48.8649 119.069 48.8649 116.192 48.8649C116.182 50.0254 116.852 50.9939 117.988 51.3273C119.586 51.7962 120.757 51.6183 122.11 49.8619C122.964 50.2816 123.83 50.707 124.732 51.1504C124.033 52.3774 123.105 53.2653 121.805 53.8688ZM116.342 46.3726C116.398 46.4708 116.453 46.6544 116.51 46.6549C118.247 46.6701 119.983 46.6673 121.744 46.6673C121.408 45.4418 120.678 44.7773 119.588 44.6396C118.155 44.4585 117.06 44.9401 116.342 46.3726Z" fill="#FBFBFB"/>
<path d="M105.596 13.7141C106.656 13.7627 107.654 13.7167 108.607 13.8984C110.715 14.3005 112.04 15.7327 112.128 17.8638C112.235 20.4335 112.154 23.0108 112.154 25.6365C111.129 25.6365 110.1 25.6365 109.053 25.6365C109.036 25.2671 109.02 24.9364 108.997 24.4198C107.968 25.5778 106.804 26.1468 105.326 26.0706C103.076 25.9547 101.324 24.4581 101.187 22.4399C101.038 20.233 102.387 18.532 104.745 18.2588C106.117 18.0998 107.529 18.2774 109.019 18.3054C109.178 17.6369 108.707 17.0207 107.969 16.6396C106.325 15.7908 104.953 16.3716 103.745 17.6131C102.973 17.0874 102.222 16.576 101.434 16.0392C102.503 14.658 103.886 13.9829 105.596 13.7141ZM105.03 23.2004C106.677 23.9941 108.505 23.2828 108.937 21.639C108.999 21.4046 108.805 20.8757 108.676 20.8576C107.665 20.7159 106.607 20.4686 105.63 20.6361C104.335 20.8583 104.055 22.094 105.03 23.2004Z" fill="#FBFBFB"/>
<path d="M105.596 13.7141C106.656 13.7627 107.654 13.7167 108.607 13.8984C110.715 14.3005 112.04 15.7327 112.128 17.8638C112.235 20.4335 112.154 23.0108 112.154 25.6365C111.129 25.6365 110.1 25.6365 109.053 25.6365C109.036 25.2671 109.02 24.9364 108.997 24.4198C107.968 25.5778 106.804 26.1468 105.326 26.0706C103.076 25.9547 101.324 24.4581 101.187 22.4399C101.038 20.233 102.387 18.532 104.745 18.2588C106.117 18.0998 107.529 18.2774 109.019 18.3054C109.178 17.6369 108.707 17.0207 107.969 16.6396C106.325 15.7908 104.953 16.3716 103.745 17.6131C102.973 17.0874 102.222 16.576 101.434 16.0392C102.503 14.658 103.886 13.9829 105.596 13.7141ZM105.03 23.2004C106.677 23.9941 108.505 23.2828 108.937 21.639C108.999 21.4046 108.805 20.8757 108.676 20.8576C107.665 20.7159 106.607 20.4686 105.63 20.6361C104.335 20.8583 104.055 22.094 105.03 23.2004Z" fill="#FBFBFB"/>
<path d="M94.7383 53.7579C92.035 54.8911 88.9949 54.3666 87.2577 52.5021C85.4331 50.5437 85.0804 47.4881 86.3963 45.0395C87.6996 42.6146 90.6402 41.4429 93.6115 42.1646C96.2149 42.797 98.0411 45.1314 98.1181 47.811C98.1938 50.4488 97.2011 52.4635 94.7383 53.7579ZM93.4657 50.9847C93.6942 50.783 93.9453 50.6012 94.1472 50.3762C95.0211 49.4021 95.169 47.6487 94.4955 46.4459C93.8922 45.3683 92.695 44.7672 91.4809 44.9539C90.2017 45.1507 89.3631 45.8699 89.0117 47.0992C88.6242 48.455 88.8223 49.714 89.9166 50.681C90.9367 51.5825 92.1172 51.6605 93.4657 50.9847Z" fill="#FBFBFB"/>
<path d="M94.7383 53.7579C92.035 54.8911 88.9949 54.3666 87.2577 52.5021C85.4331 50.5437 85.0804 47.4881 86.3963 45.0395C87.6996 42.6146 90.6402 41.4429 93.6115 42.1646C96.2149 42.797 98.0411 45.1314 98.1181 47.811C98.1938 50.4488 97.2011 52.4635 94.7383 53.7579ZM93.4657 50.9847C93.6942 50.783 93.9453 50.6012 94.1472 50.3762C95.0211 49.4021 95.169 47.6487 94.4955 46.4459C93.8922 45.3683 92.695 44.7672 91.4809 44.9539C90.2017 45.1507 89.3631 45.8699 89.0117 47.0992C88.6242 48.455 88.8223 49.714 89.9166 50.681C90.9367 51.5825 92.1172 51.6605 93.4657 50.9847Z" fill="#FBFBFB"/>
<path d="M126.54 45.0631C126.137 44.1526 125.76 43.3065 125.332 42.3448C126.528 42.3448 127.568 42.3082 128.6 42.3728C128.833 42.3874 129.137 42.715 129.248 42.9671C130.089 44.8801 130.89 46.8103 131.705 48.7345C131.775 48.8987 131.856 49.0583 132.018 49.4059C133.02 46.9555 133.959 44.6585 134.893 42.3762C136.076 42.3762 137.204 42.3762 138.483 42.3762C136.011 47.9865 133.575 53.5158 131.137 59.0487C129.996 59.0487 128.891 59.0487 127.66 59.0487C128.42 57.3895 129.127 55.7694 129.907 54.1842C130.187 53.6135 130.188 53.1662 129.919 52.5866C128.769 50.115 127.679 47.6164 126.54 45.0631Z" fill="#FAFAFA"/>
<path d="M126.54 45.0631C126.137 44.1526 125.76 43.3065 125.332 42.3448C126.528 42.3448 127.568 42.3082 128.6 42.3728C128.833 42.3874 129.137 42.715 129.248 42.9671C130.089 44.8801 130.89 46.8103 131.705 48.7345C131.775 48.8987 131.856 49.0583 132.018 49.4059C133.02 46.9555 133.959 44.6585 134.893 42.3762C136.076 42.3762 137.204 42.3762 138.483 42.3762C136.011 47.9865 133.575 53.5158 131.137 59.0487C129.996 59.0487 128.891 59.0487 127.66 59.0487C128.42 57.3895 129.127 55.7694 129.907 54.1842C130.187 53.6135 130.188 53.1662 129.919 52.5866C128.769 50.115 127.679 47.6164 126.54 45.0631Z" fill="#FAFAFA"/>
<path d="M103.043 49.0492C103.043 50.7129 103.043 52.2871 103.043 53.9121C101.952 53.9121 100.925 53.9121 99.8633 53.9121C99.8633 50.0677 99.8633 46.2558 99.8633 42.3939C100.848 42.3939 101.788 42.3939 102.802 42.3939C102.837 42.8296 102.872 43.2585 102.917 43.8235C104.226 42.2144 105.815 41.6728 107.726 42.0883C109.643 42.5053 110.887 43.853 110.981 45.9763C111.096 48.6072 111.008 51.2468 111.008 53.9231C109.971 53.9231 108.966 53.9231 107.831 53.9231C107.831 53.0685 107.831 52.2041 107.831 51.3396C107.831 49.9723 107.861 48.6042 107.822 47.238C107.781 45.8297 107.269 45.177 106.161 44.975C104.956 44.7553 103.881 45.2674 103.448 46.4746C103.17 47.2527 103.169 48.1279 103.043 49.0492Z" fill="#F9F9F9"/>
<path d="M103.043 49.0492C103.043 50.7129 103.043 52.2871 103.043 53.9121C101.952 53.9121 100.925 53.9121 99.8633 53.9121C99.8633 50.0677 99.8633 46.2558 99.8633 42.3939C100.848 42.3939 101.788 42.3939 102.802 42.3939C102.837 42.8296 102.872 43.2585 102.917 43.8235C104.226 42.2144 105.815 41.6728 107.726 42.0883C109.643 42.5053 110.887 43.853 110.981 45.9763C111.096 48.6072 111.008 51.2468 111.008 53.9231C109.971 53.9231 108.966 53.9231 107.831 53.9231C107.831 53.0685 107.831 52.2041 107.831 51.3396C107.831 49.9723 107.861 48.6042 107.822 47.238C107.781 45.8297 107.269 45.177 106.161 44.975C104.956 44.7553 103.881 45.2674 103.448 46.4746C103.17 47.2527 103.169 48.1279 103.043 49.0492Z" fill="#F9F9F9"/>
<path d="M125.065 11.3539C125.065 12.2828 125.065 13.1263 125.065 14.027C126.01 14.027 126.892 14.027 127.846 14.027C127.846 14.9424 127.846 15.8012 127.846 16.7433C126.971 16.7433 126.066 16.7433 125.078 16.7433C125.078 18.4811 125.021 20.1414 125.098 21.7956C125.151 22.9495 125.957 23.2623 127.512 22.8227C127.671 23.2676 127.838 23.7137 127.988 24.1658C128.129 24.5933 128.251 25.0271 128.379 25.4524C125.316 27.2778 121.913 25.4722 121.814 21.9668C121.766 20.2711 121.806 18.5729 121.806 16.7957C121.139 16.7957 120.506 16.7957 119.824 16.7957C119.824 15.8545 119.824 14.9935 119.824 14.0729C120.476 14.0729 121.081 14.0729 121.776 14.0729C121.776 12.8812 121.776 11.746 121.776 10.5605C122.899 10.5605 123.933 10.5605 125.024 10.5605C125.038 10.8048 125.052 11.0366 125.065 11.3539Z" fill="#F9F9F9"/>
<path d="M125.065 11.3539C125.065 12.2828 125.065 13.1263 125.065 14.027C126.01 14.027 126.892 14.027 127.846 14.027C127.846 14.9424 127.846 15.8012 127.846 16.7433C126.971 16.7433 126.066 16.7433 125.078 16.7433C125.078 18.4811 125.021 20.1414 125.098 21.7956C125.151 22.9495 125.957 23.2623 127.512 22.8227C127.671 23.2676 127.838 23.7137 127.988 24.1658C128.129 24.5933 128.251 25.0271 128.379 25.4524C125.316 27.2778 121.913 25.4722 121.814 21.9668C121.766 20.2711 121.806 18.5729 121.806 16.7957C121.139 16.7957 120.506 16.7957 119.824 16.7957C119.824 15.8545 119.824 14.9935 119.824 14.0729C120.476 14.0729 121.081 14.0729 121.776 14.0729C121.776 12.8812 121.776 11.746 121.776 10.5605C122.899 10.5605 123.933 10.5605 125.024 10.5605C125.038 10.8048 125.052 11.0366 125.065 11.3539Z" fill="#F9F9F9"/>
<path d="M78.9239 14.0535C79.3775 14.0535 79.7435 14.0535 80.1989 14.0535C80.1989 12.8839 80.1989 11.7486 80.1989 10.5618C81.3185 10.5618 82.3489 10.5618 83.4351 10.5618C83.4351 11.7117 83.4351 12.8253 83.4351 14.0142C84.3977 14.0142 85.3076 14.0142 86.2818 14.0142C86.2818 14.9502 86.2818 15.8118 86.2818 16.7475C85.3877 16.7475 84.4798 16.7475 83.5111 16.7475C83.5111 18.5323 83.4413 20.2501 83.5374 21.9588C83.5948 22.98 84.4293 23.2425 85.9275 22.8151C86.217 23.6894 86.5075 24.5669 86.8271 25.5323C85.2294 26.1746 83.66 26.3905 82.1188 25.5693C80.6949 24.8105 80.2448 23.4777 80.2352 21.9662C80.2245 20.2696 80.2328 18.5728 80.2328 16.8108C79.5633 16.8108 78.9281 16.8108 78.1687 16.8108C78.1687 15.9726 78.1359 15.1947 78.1988 14.4244C78.2102 14.2848 78.6138 14.1764 78.9239 14.0535Z" fill="#F9F9F9"/>
<path d="M78.9239 14.0535C79.3775 14.0535 79.7435 14.0535 80.1989 14.0535C80.1989 12.8839 80.1989 11.7486 80.1989 10.5618C81.3185 10.5618 82.3489 10.5618 83.4351 10.5618C83.4351 11.7117 83.4351 12.8253 83.4351 14.0142C84.3977 14.0142 85.3076 14.0142 86.2818 14.0142C86.2818 14.9502 86.2818 15.8118 86.2818 16.7475C85.3877 16.7475 84.4798 16.7475 83.5111 16.7475C83.5111 18.5323 83.4413 20.2501 83.5374 21.9588C83.5948 22.98 84.4293 23.2425 85.9275 22.8151C86.217 23.6894 86.5075 24.5669 86.8271 25.5323C85.2294 26.1746 83.66 26.3905 82.1188 25.5693C80.6949 24.8105 80.2448 23.4777 80.2352 21.9662C80.2245 20.2696 80.2328 18.5728 80.2328 16.8108C79.5633 16.8108 78.9281 16.8108 78.1687 16.8108C78.1687 15.9726 78.1359 15.1947 78.1988 14.4244C78.2102 14.2848 78.6138 14.1764 78.9239 14.0535Z" fill="#F9F9F9"/>
<path d="M117.86 16.2252C117.86 19.4045 117.86 22.4926 117.86 25.6351C116.771 25.6351 115.743 25.6351 114.656 25.6351C114.656 20.0349 114.656 14.4417 114.656 8.79834C115.696 8.79834 116.726 8.79834 117.86 8.79834C117.86 11.2441 117.86 13.6891 117.86 16.2252Z" fill="#F7F7F7"/>
<path d="M117.86 16.2252C117.86 19.4045 117.86 22.4926 117.86 25.6351C116.771 25.6351 115.743 25.6351 114.656 25.6351C114.656 20.0349 114.656 14.4417 114.656 8.79834C115.696 8.79834 116.726 8.79834 117.86 8.79834C117.86 11.2441 117.86 13.6891 117.86 16.2252Z" fill="#F7F7F7"/>
<path d="M95.1651 16.5337C95.9814 16.8847 96.419 17.4565 96.6704 18.2965C94.8132 18.2965 93.0268 18.2965 91.2461 18.2965C91.558 16.6702 93.0897 15.9465 95.1651 16.5337Z" fill="#101010"/>
<path d="M116.363 46.3061C117.059 44.9401 118.155 44.4585 119.588 44.6396C120.678 44.7773 121.408 45.4418 121.744 46.6673C119.983 46.6673 118.246 46.6701 116.51 46.6549C116.453 46.6544 116.398 46.4708 116.363 46.3061Z" fill="#030303"/>
<path d="M104.969 23.1585C104.055 22.0941 104.335 20.8584 105.63 20.6362C106.606 20.4687 107.665 20.716 108.676 20.8577C108.805 20.8758 108.999 21.4047 108.937 21.639C108.504 23.2829 106.676 23.9942 104.969 23.1585Z" fill="#050505"/>
<path d="M93.4014 51.0168C92.1159 51.6605 90.9354 51.5825 89.9153 50.681C88.821 49.7139 88.623 48.455 89.0105 47.0992C89.3618 45.8699 90.2005 45.1507 91.4796 44.9539C92.6937 44.7671 93.8909 45.3683 94.4943 46.4459C95.1677 47.6487 95.0199 49.402 94.1459 50.3762C93.9441 50.6012 93.6929 50.783 93.4014 51.0168Z" fill="#030303"/>
</g>
<defs>
<clipPath id="clip0_337_8652">
<rect width="160" height="68" fill="white"/>
</clipPath>
</defs>
</svg>
