<svg width="189" height="74" viewBox="0 0 189 74" fill="none" xmlns="http://www.w3.org/2000/svg">
<path d="M63.7095 12.2012C65.3478 14.3881 66.5131 16.7827 66.5694 19.3504C66.6476 22.911 65.0588 26.0166 62.6536 28.6687C59.4969 32.1495 55.5522 34.5099 51.1458 36.0328C37.5291 40.739 24.1227 40.4196 11.1078 33.9341C7.5366 32.1545 4.46987 29.6815 2.37416 26.2336C0.888183 23.7889 -0.160602 21.1312 0.406206 18.2548C0.998535 15.249 2.45417 12.5859 4.67465 10.3798C9.20645 5.87729 14.8347 3.40702 20.9596 1.91303C26.1913 0.636912 31.5242 -0.125704 36.9007 0.419305C45.2373 1.26441 53.2949 3.10754 60.0226 8.48165C61.3553 9.54624 62.4478 10.9036 63.7095 12.2012Z" fill="#F18B38"/>
<path d="M90.1183 51.3893C90.7147 52.4139 91.2685 53.3516 91.8945 54.4115C94.2247 50.4337 96.5294 46.6004 98.7141 42.7016C99.2903 41.6735 99.9119 41.2411 101.089 41.3659C102.089 41.4719 103.11 41.3877 104.188 41.3877C104.188 49.5477 104.188 57.5974 104.188 65.7417C102.694 65.7417 101.17 65.7417 99.633 65.7417C99.633 60.494 99.633 55.2399 99.633 49.7863C97.6539 53.2289 95.7324 56.5043 93.8916 59.8233C93.459 60.6034 92.953 60.84 92.1088 60.7799C91.2444 60.7183 90.4624 60.8663 89.9039 59.8405C88.0861 56.5016 86.1369 53.2324 84.135 49.7571C84.135 55.1979 84.135 60.4149 84.135 65.7341C82.7097 65.7341 81.1851 65.7341 79.582 65.7341C79.582 57.6819 79.582 49.6003 79.582 41.3879C80.9837 41.3879 82.3528 41.3306 83.7107 41.4262C84.0726 41.4517 84.5131 41.88 84.7265 42.2351C86.5347 45.2429 88.2986 48.2766 90.1183 51.3893Z" fill="#FBFBFB"/>
<path d="M95.5673 19.5608C94.8133 22.9723 91.9175 25.2629 88.1139 25.5467C83.1666 25.9159 79.4364 23.4066 77.8984 18.5703C79.3409 18.001 80.794 17.4275 82.196 16.8742C82.7579 17.8331 83.1692 18.7647 83.7846 19.5382C85.1211 21.2179 87.731 21.6001 89.5683 20.4915C91.1104 19.5609 91.4404 17.5446 90.0679 16.3636C89.1589 15.5816 87.9932 15.0588 86.8836 14.5433C85.6048 13.9492 84.2091 13.5907 82.9559 12.9541C79.7962 11.3488 78.4579 8.83358 78.9425 5.68117C79.3576 2.98077 81.6297 0.718057 84.8228 0.188217C89.3562 -0.564039 93.2589 0.900829 94.8476 5.26564C93.4978 5.83154 92.1397 6.40088 90.6985 7.00511C89.7206 4.8766 88.1351 3.98593 85.8496 4.47599C84.6932 4.72393 83.7206 5.23396 83.5034 6.48464C83.2915 7.70547 84.0463 8.50678 85.0495 8.98736C86.317 9.59453 87.6573 10.0536 88.9649 10.5795C89.7827 10.9084 90.6269 11.1877 91.4096 11.5845C94.7078 13.2564 96.0163 15.7506 95.5673 19.5608Z" fill="#FAFAFA"/>
<path d="M56.8855 54.6302C59.8284 52.6912 62.6844 50.7991 65.4016 48.999C65.3305 49.1547 65.1546 49.615 64.9193 50.0435C62.7648 53.9673 59.3917 56.6156 55.5057 58.6987C50.5607 61.3493 45.2294 62.8118 39.6651 63.3972C36.6428 63.7151 33.5536 64.1492 30.5608 63.8612C22.7026 63.1052 15.0519 61.4822 8.36992 56.9193C5.46766 54.9374 3.22372 52.4023 1.44389 49.4318C1.36196 49.2951 1.36807 49.0976 1.36719 48.9282C1.36689 48.8701 1.47079 48.8116 1.52339 48.7571C11.8324 57.9356 24.2558 60.3334 37.5979 59.6156C44.3139 59.2543 50.7514 57.6595 56.8855 54.6302Z" fill="#F2F0F0"/>
<path d="M51.6002 48.6379C56.8167 46.8004 61.4718 44.2452 65.304 40.3497C65.3988 40.42 65.4935 40.4903 65.5883 40.5607C64.989 41.585 64.4691 42.6653 63.7763 43.6238C61.2283 47.1491 57.7767 49.6366 53.8053 51.3033C39.4749 57.3174 25.2081 57.2144 11.1741 50.3626C7.12636 48.3863 3.78112 45.5111 1.70785 41.4153C1.58976 41.182 1.48836 40.939 1.40061 40.6931C1.3764 40.6252 1.42964 40.5304 1.46978 40.3435C2.2197 41.0216 2.90349 41.6904 3.63963 42.2974C8.63158 46.4134 14.4514 48.8236 20.7365 50.1826C31.1194 52.4277 41.3897 52.0247 51.6002 48.6379Z" fill="#F2F0F0"/>
<path d="M22.0964 42.2713C32.6015 44.1775 42.8178 43.6566 52.7774 39.9922C57.1034 38.4005 61.0547 36.1662 64.4189 32.9971C64.5686 32.8561 64.7572 32.7555 65.1545 32.7657C64.9787 33.2183 64.8603 33.7037 64.6179 34.1183C62.7702 37.2789 60.0774 39.6001 56.9438 41.4403C49.131 46.0285 40.5649 47.5569 31.6106 47.2902C23.9058 47.0607 16.557 45.4052 9.87593 41.4343C6.43294 39.3879 3.51676 36.8097 1.69686 33.1864C1.54288 32.8798 1.42326 32.5564 1.35938 32.1411C7.13738 37.736 14.231 40.6541 22.0964 42.2713Z" fill="#F2F0F0"/>
<path d="M176.634 22.6735C176.634 23.498 176.634 24.1919 176.634 24.9548C175.093 24.9548 173.644 24.9548 172.102 24.9548C172.102 16.9038 172.102 8.82613 172.102 0.662842C173.525 0.662842 175.006 0.662842 176.555 0.662842C176.555 3.7748 176.555 6.89241 176.555 10.1954C177.792 8.81346 179.175 7.88138 180.959 7.71602C185.15 7.32767 187.802 9.33232 188.111 13.6096C188.382 17.3471 188.168 21.1187 188.168 24.9499C186.67 24.9499 185.187 24.9499 183.549 24.9499C183.549 22.3976 183.551 19.8708 183.548 17.3439C183.547 16.5559 183.561 15.7662 183.514 14.9804C183.414 13.318 182.742 12.4254 181.357 12.0401C179.972 11.6546 178.357 12.1166 177.684 13.4465C177.114 14.5742 176.793 15.8954 176.676 17.1594C176.51 18.9402 176.634 20.7472 176.634 22.6735Z" fill="#FBFBFB"/>
<path d="M113.392 10.0968C116.334 7.52353 120.305 6.93309 123.614 8.5324C126.726 10.037 128.295 13.2948 127.93 17.6235C123.744 17.6235 119.546 17.6235 115.269 17.6235C115.554 19.5668 116.555 20.8264 118.335 21.2856C120.683 21.8912 122.625 21.2029 123.927 19.0253C125.24 19.6763 126.492 20.2976 127.791 20.9418C125.722 24.3729 122.726 25.8698 118.832 25.536C115.374 25.2396 112.775 23.5658 111.431 20.362C109.994 16.9397 110.455 13.6887 112.784 10.7391C112.947 10.5327 113.138 10.3477 113.392 10.0968ZM121.269 11.7715C118.368 10.9648 116.157 12.0094 115.707 14.3568C118.277 14.3568 120.856 14.3568 123.536 14.3568C123.173 13.1444 122.542 12.319 121.269 11.7715Z" fill="#FBFBFB"/>
<path d="M159.82 65.6993C153.827 67.7931 148.247 65.0381 147.125 59.3892C146.406 55.7662 147.404 52.5593 150.472 50.2835C153.475 48.0562 156.794 47.8888 160.124 49.5417C163.164 51.0508 164.641 54.4202 164.167 58.477C160.026 58.477 155.871 58.477 151.718 58.477C151.704 60.1519 152.67 61.5498 154.31 62.031C156.616 62.7079 158.307 62.4511 160.259 59.9159C161.492 60.5217 162.742 61.1357 164.045 61.7757C163.036 63.5467 161.696 64.8283 159.82 65.6993ZM151.935 54.8797C152.016 55.0215 152.095 55.2865 152.177 55.2872C154.684 55.3091 157.19 55.3051 159.732 55.3051C159.246 53.5362 158.193 52.5771 156.62 52.3784C154.551 52.117 152.97 52.8121 151.935 54.8797Z" fill="#FBFBFB"/>
<path d="M136.423 7.74243C137.953 7.81257 139.393 7.74615 140.768 8.00844C143.812 8.58872 145.723 10.6559 145.851 13.7318C146.005 17.4408 145.888 21.1608 145.888 24.9506C144.408 24.9506 142.923 24.9506 141.412 24.9506C141.388 24.4173 141.366 23.94 141.331 23.1944C139.846 24.8657 138.167 25.687 136.033 25.5771C132.785 25.4098 130.256 23.2496 130.059 20.3367C129.844 17.1514 131.792 14.6963 135.195 14.302C137.175 14.0725 139.213 14.3288 141.363 14.3692C141.593 13.4043 140.914 12.515 139.848 11.9649C137.475 10.7398 135.495 11.5781 133.751 13.37C132.637 12.6112 131.554 11.8731 130.416 11.0983C131.958 9.10472 133.955 8.13039 136.423 7.74243ZM135.605 21.4343C137.983 22.58 140.621 21.5532 141.246 19.1807C141.335 18.8424 141.055 18.0791 140.868 18.0529C139.41 17.8484 137.882 17.4915 136.472 17.7332C134.603 18.054 134.199 19.8374 135.605 21.4343Z" fill="#FBFBFB"/>
<path d="M120.752 65.5392C116.85 67.1749 112.462 66.4179 109.955 63.7267C107.321 60.9002 106.812 56.4899 108.712 52.9558C110.593 49.4557 114.837 47.7645 119.126 48.8063C122.883 49.7191 125.519 53.0884 125.63 56.956C125.74 60.7632 124.307 63.6711 120.752 65.5392ZM118.915 61.5366C119.245 61.2456 119.608 60.9831 119.899 60.6584C121.16 59.2523 121.374 56.7217 120.402 54.9856C119.531 53.4303 117.803 52.5626 116.051 52.8322C114.204 53.1162 112.994 54.1542 112.487 55.9286C111.927 57.8855 112.213 59.7025 113.793 61.0983C115.265 62.3995 116.969 62.5121 118.915 61.5366Z" fill="#FBFBFB"/>
<path d="M166.654 52.9896C166.072 51.6754 165.528 50.4542 164.91 49.0662C166.637 49.0662 168.137 49.0133 169.627 49.1067C169.963 49.1277 170.402 49.6005 170.562 49.9644C171.776 52.7255 172.932 55.5115 174.109 58.2887C174.21 58.5257 174.326 58.756 174.56 59.2577C176.007 55.7211 177.363 52.4056 178.71 49.1115C180.418 49.1115 182.045 49.1115 183.891 49.1115C180.324 57.2091 176.808 65.1898 173.289 73.1756C171.642 73.1756 170.047 73.1756 168.27 73.1756C169.367 70.7808 170.388 68.4425 171.513 66.1544C171.918 65.3308 171.919 64.6852 171.53 63.8486C169.871 60.2812 168.297 56.6748 166.654 52.9896Z" fill="#FAFAFA"/>
<path d="M132.738 58.7431C132.738 61.1444 132.738 63.4164 132.738 65.7618C131.163 65.7618 129.682 65.7618 128.148 65.7618C128.148 60.2131 128.148 54.7112 128.148 49.1372C129.57 49.1372 130.926 49.1372 132.39 49.1372C132.44 49.7661 132.49 50.3852 132.556 51.2006C134.446 48.8781 136.739 48.0964 139.496 48.6961C142.263 49.298 144.06 51.2432 144.195 54.3079C144.362 58.1051 144.235 61.915 144.235 65.7778C142.737 65.7778 141.286 65.7778 139.649 65.7778C139.649 64.5444 139.649 63.2966 139.649 62.0489C139.648 60.0754 139.692 58.1007 139.635 56.1289C139.576 54.0962 138.837 53.1541 137.239 52.8627C135.498 52.5455 133.947 53.2847 133.323 55.027C132.92 56.1501 132.919 57.4134 132.738 58.7431Z" fill="#F9F9F9"/>
<path d="M164.525 4.33574C164.525 5.67647 164.525 6.89388 164.525 8.19401C165.889 8.19401 167.162 8.19401 168.539 8.19401C168.539 9.51523 168.539 10.7547 168.539 12.1145C167.276 12.1145 165.971 12.1145 164.544 12.1145C164.544 14.6228 164.462 17.0191 164.572 19.4068C164.649 21.0721 165.813 21.5236 168.057 20.8892C168.286 21.5313 168.528 22.1752 168.744 22.8277C168.947 23.4448 169.123 24.0709 169.309 24.6846C164.888 27.3194 159.976 24.7132 159.833 19.6538C159.764 17.2062 159.821 14.7552 159.821 12.1902C158.858 12.1902 157.945 12.1902 156.961 12.1902C156.961 10.8317 156.961 9.58898 156.961 8.26013C157.902 8.26013 158.775 8.26013 159.777 8.26013C159.777 6.54013 159.777 4.90166 159.777 3.19067C161.398 3.19067 162.891 3.19067 164.466 3.19067C164.486 3.54319 164.506 3.87781 164.525 4.33574Z" fill="#F9F9F9"/>
<path d="M97.9266 8.23242C98.5813 8.23241 99.1095 8.23241 99.7668 8.23241C99.7668 6.54431 99.7668 4.90558 99.7668 3.19263C101.383 3.19263 102.87 3.19263 104.438 3.19263C104.438 4.85237 104.438 6.45961 104.438 8.17565C105.827 8.17565 107.14 8.17565 108.546 8.17565C108.546 9.52657 108.546 10.7702 108.546 12.1208C107.256 12.1208 105.946 12.1208 104.548 12.1208C104.548 14.6968 104.447 17.1761 104.585 19.6424C104.668 21.1163 105.873 21.4952 108.035 20.8784C108.453 22.1403 108.872 23.4067 109.334 24.8002C107.028 25.7273 104.762 26.039 102.538 24.8536C100.483 23.7584 99.833 21.8347 99.8193 19.6531C99.8038 17.2043 99.8157 14.7553 99.8157 12.2121C98.8494 12.2121 97.9327 12.2121 96.8366 12.2121C96.8366 11.0024 96.7892 9.87956 96.88 8.76772C96.8964 8.56622 97.4789 8.4097 97.9266 8.23242Z" fill="#F9F9F9"/>
<path d="M154.124 11.3667C154.124 15.9555 154.124 20.4128 154.124 24.9484C152.552 24.9484 151.068 24.9484 149.5 24.9484C149.5 16.8655 149.5 8.79252 149.5 0.647217C151.001 0.647217 152.487 0.647217 154.124 0.647217C154.124 4.17728 154.124 7.7062 154.124 11.3667Z" fill="#F7F7F7"/>
</svg>
